<?xml version="1.0" encoding="UTF-8" standalone="no"?>
<!-- Created with Inkscape (http://www.inkscape.org/) -->

<svg
   xmlns:dc="http://purl.org/dc/elements/1.1/"
   xmlns:cc="http://creativecommons.org/ns#"
   xmlns:rdf="http://www.w3.org/1999/02/22-rdf-syntax-ns#"
   xmlns:svg="http://www.w3.org/2000/svg"
   xmlns="http://www.w3.org/2000/svg"
   xmlns:xlink="http://www.w3.org/1999/xlink"
   version="1.1"
   width="679.09003"
   height="508"
   id="svg2">
  <defs
     id="defs4">
    <linearGradient
       id="I">
      <stop
         id="U"
         style="stop-color:#ffffff;stop-opacity:1"
         offset="0" />
      <stop
         id="V"
         style="stop-color:#ffffff;stop-opacity:0"
         offset="1" />
    </linearGradient>
    <linearGradient
       y1="7.0939999"
       x2="0"
       y2="38.719002"
       id="H"
       xlink:href="#I"
       gradientUnits="userSpaceOnUse" />
    <linearGradient
       id="G">
      <stop
         id="S"
         style="stop-color:#ffffff;stop-opacity:1"
         offset="0" />
      <stop
         id="T"
         style="stop-color:#ffffff;stop-opacity:0.40000001"
         offset="1" />
    </linearGradient>
    <linearGradient
       x1="24.709"
       y1="18.927999"
       x2="32.389999"
       y2="33.919998"
       id="F"
       gradientUnits="userSpaceOnUse">
      <stop
         id="Q"
         style="stop-color:#ffffff;stop-opacity:0.639"
         offset="0" />
      <stop
         id="R"
         style="stop-color:#ffffff;stop-opacity:0"
         offset="1" />
    </linearGradient>
    <linearGradient
       x1="13"
       x2="41"
       id="E"
       xlink:href="#G"
       gradientUnits="userSpaceOnUse" />
    <linearGradient
       y1="6"
       x2="0"
       y2="34"
       id="D"
       gradientUnits="userSpaceOnUse">
      <stop
         id="O"
         style="stop-color:#d02604;stop-opacity:1"
         offset="0" />
      <stop
         id="P"
         style="stop-color:#ed4c70;stop-opacity:1"
         offset="1" />
    </linearGradient>
    <linearGradient
       x1="14.9"
       y1="18"
       x2="22.4"
       y2="40"
       id="C"
       xlink:href="#I"
       gradientUnits="userSpaceOnUse" />
    <linearGradient
       y1="6"
       x2="0"
       y2="18"
       id="B"
       xlink:href="#G"
       gradientUnits="userSpaceOnUse" />
    <clipPath
       id="clipPath3515">
      <rect
         width="550"
         height="404.28571"
         x="88.571426"
         y="268.07648"
         id="rect3517"
         style="opacity:0.39160007;fill:#445500;fill-opacity:1;stroke:#445500;stroke-opacity:1" />
    </clipPath>
    <clipPath
       id="clipPath3519">
      <rect
         width="550"
         height="404.28571"
         x="88.571426"
         y="268.07648"
         id="rect3521"
         style="opacity:0.39160007;fill:#445500;fill-opacity:1;stroke:#445500;stroke-opacity:1" />
    </clipPath>
    <clipPath
       id="clipPath3523">
      <rect
         width="550"
         height="404.28571"
         x="88.571426"
         y="268.07648"
         id="rect3525"
         style="opacity:0.39160007;fill:#445500;fill-opacity:1;stroke:#445500;stroke-opacity:1" />
    </clipPath>
    <clipPath
       id="clipPath3527">
      <rect
         width="550"
         height="404.28571"
         x="88.571426"
         y="268.07648"
         id="rect3529"
         style="opacity:0.39160007;fill:#445500;fill-opacity:1;stroke:#445500;stroke-opacity:1" />
    </clipPath>
    <clipPath
       id="clipPath3531">
      <rect
         width="550"
         height="404.28571"
         x="88.571426"
         y="268.07648"
         id="rect3533"
         style="opacity:0.39160007;fill:#445500;fill-opacity:1;stroke:#445500;stroke-opacity:1" />
    </clipPath>
    <clipPath
       id="clipPath3535">
      <rect
         width="550"
         height="404.28571"
         x="88.571426"
         y="268.07648"
         id="rect3537"
         style="opacity:0.39160007;fill:#445500;fill-opacity:1;stroke:#445500;stroke-opacity:1" />
    </clipPath>
    <clipPath
       id="clipPath3539">
      <rect
         width="550"
         height="404.28571"
         x="88.571426"
         y="268.07648"
         id="rect3541"
         style="opacity:0.39160007;fill:#445500;fill-opacity:1;stroke:#445500;stroke-opacity:1" />
    </clipPath>
    <clipPath
       id="clipPath3543">
      <rect
         width="550"
         height="404.28571"
         x="88.571426"
         y="268.07648"
         id="rect3545"
         style="opacity:0.39160007;fill:#445500;fill-opacity:1;stroke:#445500;stroke-opacity:1" />
    </clipPath>
    <clipPath
       id="clipPath3547">
      <rect
         width="66.514053"
         height="48.892147"
         x="11.402705"
         y="-23.864639"
         transform="matrix(0.64895178,0.76082953,-0.76082953,0.64895178,0,0)"
         id="rect3549"
         style="opacity:0.39160007;fill:#445500;fill-opacity:1;stroke:#445500;stroke-width:0.12093464;stroke-opacity:1" />
    </clipPath>
    <clipPath
       id="clipPath3551">
      <rect
         width="550"
         height="404.28571"
         x="88.571426"
         y="268.07648"
         id="rect3553"
         style="opacity:0.39160007;fill:#445500;fill-opacity:1;stroke:#445500;stroke-opacity:1" />
    </clipPath>
    <clipPath
       id="clipPath3555">
      <rect
         width="550"
         height="404.28571"
         x="88.571426"
         y="268.07648"
         id="rect3557"
         style="opacity:0.39160007;fill:#445500;fill-opacity:1;stroke:#445500;stroke-opacity:1" />
    </clipPath>
    <clipPath
       id="clipPath3559">
      <rect
         width="550"
         height="404.28571"
         x="88.571426"
         y="268.07648"
         id="rect3561"
         style="opacity:0.39160007;fill:#445500;fill-opacity:1;stroke:#445500;stroke-opacity:1" />
    </clipPath>
  </defs>
  <metadata
     id="metadata7">
    <rdf:RDF>
      <cc:Work
         rdf:about="">
        <dc:format>image/svg+xml</dc:format>
        <dc:type
           rdf:resource="http://purl.org/dc/dcmitype/StillImage" />
        <dc:title></dc:title>
      </cc:Work>
    </rdf:RDF>
  </metadata>
  <g
     transform="translate(0,-544.36023)"
     id="layer1">
    <path
       d="m 434.36106,370.64419 c -85.85617,7.1804 -216.98253,63.77764 -221.66752,145.97462 1.03488,74.30708 71.46927,148.46875 210.46875,148.46875 115.72355,0 191.48602,-74.14373 199.71875,-148.4375 4.11637,-37.14689 -8.68434,-74.30759 -41.78125,-102.15625 -47.96117,-29.83977 -114.28324,-43.15547 -146.73873,-43.84962 z m -25.75889,33.82996 c 75.24887,15.40167 138.98252,-16.87869 171.84137,10.76966 32.85885,27.64835 45.52087,64.46338 41.4375,101.3125 -8.16674,73.69824 -83.42226,147.53125 -198.71875,147.53125 -138.64413,0 -208.44253,-73.81507 -209.46875,-147.5 -1.02622,-73.68493 61.65383,-139.38753 194.90863,-112.11341 z"
       transform="matrix(1.2299574,0,0,1.2299574,-109.12177,217.05819)"
       clip-path="url(#clipPath3559)"
       id="path3009"
       style="font-size:medium;font-style:normal;font-variant:normal;font-weight:normal;font-stretch:normal;text-indent:0;text-align:start;text-decoration:none;line-height:normal;letter-spacing:normal;word-spacing:normal;text-transform:none;direction:ltr;block-progression:tb;writing-mode:lr-tb;text-anchor:start;baseline-shift:baseline;color:#000000;fill:#ff2a2a;fill-opacity:1;stroke:none;stroke-width:1px;marker:none;visibility:visible;display:inline;overflow:visible;enable-background:accumulate;font-family:Sans;-inkscape-font-specification:Sans" />
    <path
       d="M 390.07104,662.98986 C 330.33418,657.08883 285.32253,638.78937 252.14221,606.915 c -45.01012,-43.23859 -54.6927,-108.27486 -23.2812,-156.37595 13.86321,-21.22903 34.94597,-36.84728 61.87664,-45.83862 14.62726,-4.88361 23.41227,-6.54445 42.1183,-7.96267 20.20725,-1.53202 37.78781,-0.31759 70.06196,4.83975 21.93516,3.5052 23.47002,3.61273 51.38749,3.60017 15.82736,-0.007 37.10178,-0.68736 47.27651,-1.51165 25.15862,-2.03816 51.73156,-2.02695 59.5668,0.0252 9.40044,2.46203 17.75541,7.54103 26.29669,15.98582 15.09384,14.92332 26.00721,33.0282 31.45808,52.18783 3.56669,12.53674 4.48922,36.49898 1.96787,51.114 -4.96861,28.80067 -19.67749,56.22038 -42.72205,79.64074 -19.54442,19.86315 -38.28361,32.70423 -63.20664,43.31254 -25.81782,10.98916 -49.22799,16.11908 -80.58923,17.65967 -23.5564,1.15718 -26.94072,1.11118 -44.28239,-0.60189 l 0,0 z"
       transform="matrix(1.2299574,0,0,1.2299574,-109.12177,217.05819)"
       clip-path="url(#clipPath3555)"
       id="path3017"
       style="fill:#d40000;stroke:#d40000;stroke-width:1.03058243" />
    <path
       d="m 439.15876,396.94424 c 0,0 60.63028,-42.11999 106.47492,41.03415 -48.74994,-41.59276 -106.47492,-41.03415 -106.47492,-41.03415 z"
       transform="matrix(1.2299574,0,0,1.2299574,-109.12177,217.05819)"
       clip-path="url(#clipPath3551)"
       id="path3023"
       style="fill:#445500;stroke:#445500;stroke-width:0.76701462px;stroke-linecap:butt;stroke-linejoin:miter;stroke-opacity:1" />
    <g
       transform="matrix(6.6001192,-7.7379641,7.7379641,6.6001192,-116.15311,789.49449)"
       clip-path="url(#clipPath3547)"
       id="g3194">
      <path
         d="M 13,6 2,18 23,40 24,40 45,18 34,6 z"
         id="2"
         style="fill:url(#D)" />
      <path
         d="m 13.65625,7.59375 -9.5,10.375 19.34375,20.25 19.34375,-20.25 -9.5,-10.375 -19.6875,0 z"
         id="3"
         style="opacity:0.4;fill:none;stroke:url(#H)" />
      <path
         d="m 27.896973,36.052357 -11.641067,-12.966506 8.43085,-4.284526 3.611686,17.047007 z"
         transform="matrix(1.97959,0.5921,-1.006,1.1651,4.045,-18.523)"
         id="4"
         style="opacity:0.28300003;fill:url(#F)" />
      <path
         d="m 20,6 7,0 7,12 -21,0 z"
         id="5"
         style="opacity:0.4;fill:url(#B)" />
      <g
         id="6"
         style="fill:#ffffff">
        <path
           d="M 27.896973,36.052357 11.839745,25.330127 16.255906,23.085851 z"
           transform="matrix(1.97959,0.5921,-1.006,1.1651,4.045,-18.523)"
           id="J"
           style="opacity:0.2" />
        <path
           d="M 13,6 20,6 13,18 2,18 z"
           id="K"
           style="fill-opacity:0.30100002" />
      </g>
      <path
         d="M 24,40 45.000001,18 33.999999,18 z"
         id="7"
         style="opacity:0.2" />
      <path
         d="m 34,6 -7,0 7,12 11,0 z"
         id="8"
         style="opacity:0.15" />
      <g
         id="9"
         style="fill:none">
        <path
           d="M 13.25,6.5625 2.75,18 l 20.46875,21.4375 0.5625,0 L 44.25,18 33.75,6.5625 l -20.5,0 z"
           id="L"
           style="opacity:0.4;stroke:#000000" />
        <path
           d="m 19.4,6 -7,12 9,20"
           id="M"
           style="opacity:0.3;stroke:url(#C)" />
        <path
           d="m 27.5,6 7,12 -9,20"
           id="N"
           style="opacity:0.2;stroke:#ffffff" />
      </g>
      <path
         d="m 5,18 h 37 v 1 H 5 z"
         id="A"
         style="opacity:0.5;fill:url(#E)" />
    </g>
    <path
       d="m 384.05592,573.44835 c 0,0 -44.04848,49.50448 -158.40832,-0.9717 -39.21897,-16.73053 -46.80071,-37.36042 -39.80926,-51.65776 6.99145,-14.29734 36.91345,-12.22961 56.50546,-29.01087 19.59201,-16.78125 6.83248,-16.4579 34.36621,-46.6106 27.53373,-30.1527 33.08776,5.15218 57.03772,-23.04788 12.66857,-16.31491 5.32723,-34.93357 8.69398,-46.58956 3.36675,-11.65599 6.6119,-22.2657 16.16244,-23.23351 9.55054,-0.96781 5.73714,41.43247 20.49892,44.48876 14.76179,3.0563 58.96883,86.84339 58.96883,86.84339 z"
       transform="matrix(1.2299574,0,0,1.2299574,-109.12177,217.05819)"
       clip-path="url(#clipPath3543)"
       id="path3211"
       style="fill:#d40000;fill-opacity:1;stroke:#d40000;stroke-width:1px;stroke-linecap:butt;stroke-linejoin:miter;stroke-opacity:1" />
    <path
       d="M 439.82143,663.79075 C 621.63719,644.63769 657.26372,495.57647 593.57142,428.07647 606.47538,515.179 569.25566,619.19383 439.82143,663.79075 z"
       transform="matrix(1.2299574,0,0,1.2299574,-109.12177,217.05819)"
       clip-path="url(#clipPath3539)"
       id="path3213"
       style="opacity:0.39160007;fill:#ff8080;stroke:#ff8080;stroke-width:1px;stroke-linecap:butt;stroke-linejoin:miter;stroke-opacity:1" />
    <path
       d="m 446.07058,396.14138 c 0,0 39.78356,-44.66241 112.2127,-10.00069 -53.61368,-1.24864 -112.2127,10.00069 -112.2127,10.00069 z"
       transform="matrix(1.2299574,0,0,1.2299574,-109.12177,217.05819)"
       clip-path="url(#clipPath3535)"
       id="path3023-5"
       style="fill:#445500;stroke:#445500;stroke-width:0.59455311px;stroke-linecap:butt;stroke-linejoin:miter;stroke-opacity:1" />
    <path
       d="m 449.2101,397.00502 c 0,0 -35.92018,-45.11168 -108.3381,-7.89904 51.35754,-3.98698 108.3381,7.89904 108.3381,7.89904 z"
       transform="matrix(1.2299574,0,0,1.2299574,-109.12177,217.05819)"
       clip-path="url(#clipPath3531)"
       id="path3023-5-3"
       style="fill:#445500;stroke:#445500;stroke-width:0.59003681px;stroke-linecap:butt;stroke-linejoin:miter;stroke-opacity:1" />
    <path
       d="m 362.40951,435.67104 c 0,0 17.28729,-62.88755 84.22159,-39.97101 -53.90082,6.97722 -84.22159,39.97101 -84.22159,39.97101 z"
       transform="matrix(1.2299574,0,0,1.2299574,-109.12177,217.05819)"
       clip-path="url(#clipPath3527)"
       id="path3023-5-5"
       style="fill:#445500;stroke:#445500;stroke-width:0.64082623px;stroke-linecap:butt;stroke-linejoin:miter;stroke-opacity:1" />
    <path
       d="m 445.08766,396.29036 c 0,0 -2.27104,-53.51157 -91.42335,-33.75201 56.92908,5.38757 91.42335,33.75201 91.42335,33.75201 z"
       transform="matrix(1.2299574,0,0,1.2299574,-109.12177,217.05819)"
       clip-path="url(#clipPath3523)"
       id="path3023-5-3-6"
       style="fill:#445500;stroke:#445500;stroke-width:0.68403333px;stroke-linecap:butt;stroke-linejoin:miter;stroke-opacity:1" />
    <path
       d="m 440.62763,396.43869 c 0,0 -0.33672,-20.61524 0,-29.28571 3.61971,-2.8621 12.53589,-2.19887 16.07142,-0.17857 0.50507,7.57614 4.10714,30.17856 4.10714,30.17856 z"
       transform="matrix(1.2299574,0,0,1.2299574,-109.12177,217.05819)"
       clip-path="url(#clipPath3519)"
       id="path3298"
       style="fill:#445500;fill-opacity:1;stroke:#445500;stroke-width:1px;stroke-linecap:butt;stroke-linejoin:miter;stroke-opacity:1" />
    <path
       d="m 439.3278,451.87192 c 0,0 -26.00397,-48.48946 17.99729,-70.17518 -17.57131,42.73036 -17.99729,70.17518 -17.99729,70.17518 z"
       transform="matrix(1.2299574,0,0,1.2299574,-109.12177,217.05819)"
       clip-path="url(#clipPath3515)"
       id="path3023-5-2"
       style="fill:#445500;stroke:#445500;stroke-width:0.59455311px;stroke-linecap:butt;stroke-linejoin:miter;stroke-opacity:1" />
  </g>
</svg>
